<svg width="172" height="188" viewBox="0 0 172 188" fill="none" xmlns="http://www.w3.org/2000/svg">
<path fill-rule="evenodd" clip-rule="evenodd" d="M118.692 26.6279C118.692 64.5927 85.4772 83.6627 49.6773 84.9867C48.1188 85.0148 46.563 85.126 45.0165 85.3199C35.4081 86.5585 26.3415 90.4623 18.8493 96.5868C11.3572 102.711 5.74041 110.81 2.63867 119.962C0.86676 125.277 -0.0243146 130.844 0.000502143 136.445C-0.0110547 143.203 1.31282 149.897 3.89652 156.145C6.48022 162.393 10.2731 168.072 15.0586 172.857C19.844 177.643 25.5283 181.442 31.7866 184.038C38.0449 186.633 44.7547 187.973 51.5328 187.982C80.0074 187.982 103.9 164.923 103.065 136.445C101.992 97.3932 98.5714 62.5059 150.359 52.7649C151.993 52.4231 153.598 51.9571 155.16 51.3708C160.113 49.3872 164.36 45.9742 167.356 41.5692C170.351 37.1641 171.959 31.9676 171.974 26.6455C171.949 25.3332 171.838 24.0239 171.64 22.7262C170.727 16.4189 167.566 10.6505 162.736 6.477C157.905 2.30351 151.729 0.00418953 145.337 8.90589e-06C141.833 0.00115347 138.364 0.691126 135.128 2.03047C131.891 3.36981 128.952 5.33224 126.477 7.80544C124.002 10.2787 122.041 13.2141 120.705 16.4439C119.369 19.6737 118.685 23.1343 118.692 26.6279Z" fill="#FCC00D"/>
</svg>
