<svg width="680" height="782" viewBox="0 0 680 782" fill="none" xmlns="http://www.w3.org/2000/svg">
<path fill-rule="evenodd" clip-rule="evenodd" d="M-125.165 189.813C64.2553 189.813 159.403 355.499 166.008 534.083C166.149 541.857 166.703 549.618 167.671 557.333V557.333C173.851 605.263 193.328 650.49 223.885 687.864C254.443 725.238 294.852 753.256 340.511 768.729V768.729C367.03 777.568 394.808 782.013 422.753 781.889C456.471 781.947 489.87 775.343 521.042 762.454C552.214 749.566 580.549 730.646 604.427 706.774C628.306 682.902 647.261 654.547 660.209 623.328C673.158 592.109 679.846 558.638 679.892 524.827C679.892 382.785 564.84 263.598 422.753 267.765C227.909 273.117 53.8437 290.181 5.24204 31.8465C3.53702 23.6963 1.21169 15.6891 -1.71355 7.89518C-11.6102 -16.814 -28.6388 -37.9973 -50.6173 -52.9404C-72.5958 -67.8835 -98.5232 -75.9057 -125.077 -75.979C-131.625 -75.8544 -138.157 -75.2978 -144.632 -74.3123C-176.101 -69.7575 -204.882 -53.9891 -225.705 -29.894C-246.528 -5.79893 -258 25.0109 -258.021 56.8948C-258.015 74.3741 -254.573 91.6806 -247.89 107.824C-241.208 123.968 -231.417 138.632 -219.077 150.978C-206.737 163.323 -192.091 173.108 -175.976 179.771C-159.862 186.435 -142.595 189.847 -125.165 189.813Z" fill="#ED6C1E"/>
<circle cx="422" cy="524" r="242" fill="white"/>
</svg>
