<svg width="1400" height="880" viewBox="0 0 1400 880" fill="none" xmlns="http://www.w3.org/2000/svg">
<mask id="mask0_56_500" style="mask-type:alpha" maskUnits="userSpaceOnUse" x="0" y="0" width="1400" height="880">
<rect width="1400" height="880" rx="40" fill="url(#paint0_linear_56_500)"/>
</mask>
<g mask="url(#mask0_56_500)">
<path fill-rule="evenodd" clip-rule="evenodd" d="M1026.2 1025.98C1079.32 898.279 1218.17 880.413 1340.93 925.841C1346.23 927.918 1351.64 929.712 1357.14 931.215C1391.32 940.436 1427.4 939.938 1461.27 929.776C1495.15 919.615 1525.45 900.199 1548.72 873.739C1562.14 858.329 1572.94 840.844 1580.69 821.97C1590.19 799.254 1595.08 774.894 1595.1 750.279C1595.11 725.663 1590.25 701.277 1580.78 678.511C1571.31 655.745 1557.43 635.046 1539.92 617.597C1522.42 600.148 1501.63 586.29 1478.75 576.815C1382.59 537.14 1269.63 581.413 1232.61 678.366C1181.6 811.218 1144.35 933.333 955.82 893.941C949.824 892.814 943.751 892.145 937.654 891.941C918.15 891.711 899.033 897.274 882.753 907.917C866.474 918.561 853.772 933.799 846.277 951.68C844.526 956.129 843.071 960.689 841.923 965.329C836.182 987.817 838.788 1011.62 849.263 1032.39C859.737 1053.16 877.38 1069.5 898.961 1078.42C910.797 1083.3 923.479 1085.81 936.283 1085.82C949.086 1085.82 961.76 1083.31 973.578 1078.44C985.396 1073.57 996.128 1066.43 1005.16 1057.43C1014.19 1048.43 1021.34 1037.74 1026.2 1025.98Z" fill="white" fill-opacity="0.1"/>
<path d="M1126.1 758C1126.1 764.627 1120.7 770 1114.05 770C1107.39 770 1102 764.627 1102 758C1102 751.373 1107.39 746 1114.05 746C1120.7 746 1126.1 751.373 1126.1 758Z" fill="#05B2AF"/>
<g filter="url(#filter0_d_56_500)">
<path fill-rule="evenodd" clip-rule="evenodd" d="M-145.165 69.8126C44.2553 69.8126 139.403 235.499 146.008 414.083C146.149 421.857 146.703 429.618 147.671 437.333C153.851 485.263 173.328 530.49 203.885 567.864C234.443 605.238 274.852 633.256 320.511 648.729C347.03 657.568 374.808 662.013 402.753 661.889C436.471 661.947 469.87 655.343 501.042 642.454C532.214 629.566 560.549 610.646 584.427 586.774C608.306 562.902 627.261 534.547 640.209 503.328C653.158 472.109 659.846 438.638 659.892 404.827C659.892 262.785 544.84 143.598 402.753 147.765C207.909 153.117 33.8437 170.181 -14.758 -88.1534C-16.463 -96.3038 -18.7883 -104.311 -21.7136 -112.105C-31.6102 -136.814 -48.6388 -157.997 -70.6173 -172.94C-92.5958 -187.883 -118.523 -195.906 -145.077 -195.979C-151.625 -195.854 -158.157 -195.298 -164.632 -194.312C-196.101 -189.757 -224.882 -173.989 -245.705 -149.894C-266.528 -125.799 -278 -94.989 -278.021 -63.1052C-278.015 -45.6259 -274.573 -28.3194 -267.89 -12.1756C-261.208 3.96812 -251.417 18.6321 -239.077 30.9776C-226.737 43.323 -212.091 53.1077 -195.976 59.7713C-179.862 66.435 -162.595 69.8472 -145.165 69.8126Z" fill="#ED6C1E"/>
</g>
</g>
<circle cx="402" cy="404" r="242" fill="white"/>
<defs>
<filter id="filter0_d_56_500" x="-328.021" y="-241.979" width="1037.91" height="957.871" filterUnits="userSpaceOnUse" color-interpolation-filters="sRGB">
<feFlood flood-opacity="0" result="BackgroundImageFix"/>
<feColorMatrix in="SourceAlpha" type="matrix" values="0 0 0 0 0 0 0 0 0 0 0 0 0 0 0 0 0 0 127 0" result="hardAlpha"/>
<feOffset dy="4"/>
<feGaussianBlur stdDeviation="25"/>
<feComposite in2="hardAlpha" operator="out"/>
<feColorMatrix type="matrix" values="0 0 0 0 0.929412 0 0 0 0 0.423529 0 0 0 0 0.117647 0 0 0 0.25 0"/>
<feBlend mode="normal" in2="BackgroundImageFix" result="effect1_dropShadow_56_500"/>
<feBlend mode="normal" in="SourceGraphic" in2="effect1_dropShadow_56_500" result="shape"/>
</filter>
<linearGradient id="paint0_linear_56_500" x1="1400" y1="6.63779e-05" x2="6.44752e-05" y2="880" gradientUnits="userSpaceOnUse">
<stop stop-color="#463791"/>
<stop offset="1" stop-color="#7B61FF"/>
</linearGradient>
</defs>
</svg>
