<svg width="562" height="318" viewBox="0 0 562 318" fill="none" xmlns="http://www.w3.org/2000/svg">
<path fill-rule="evenodd" clip-rule="evenodd" d="M188.203 463.979C241.316 336.279 380.171 318.413 502.931 363.841C508.233 365.918 513.643 367.712 519.138 369.215C553.321 378.436 589.403 377.938 623.275 367.776C657.146 357.615 687.446 338.199 710.724 311.739C724.144 296.329 734.943 278.844 742.695 259.97C752.188 237.254 757.082 212.894 757.096 188.279C757.111 163.663 752.246 139.277 742.78 116.511C733.313 93.7449 719.43 73.0462 701.925 55.5969C684.419 38.1477 663.633 24.2898 640.755 14.8147C544.587 -24.8599 431.633 19.4127 394.614 116.366C343.603 249.218 306.35 371.333 117.82 331.941C111.824 330.814 105.751 330.145 99.6536 329.941C80.1496 329.711 61.033 335.274 44.7533 345.917C28.4737 356.561 15.7724 371.799 8.27713 389.68C6.52563 394.129 5.07086 398.689 3.9226 403.329C-1.81751 425.817 0.788248 449.624 11.2628 470.392C21.7374 491.16 39.3801 507.5 60.9608 516.42C72.7965 521.298 85.479 523.811 98.2826 523.816C111.086 523.82 123.76 521.315 135.578 516.444C147.396 511.573 158.128 504.432 167.158 495.43C176.188 486.427 183.339 475.74 188.203 463.979Z" fill="white" fill-opacity="0.1"/>
</svg>
