<svg width="168" height="189" viewBox="0 0 168 189" fill="none" xmlns="http://www.w3.org/2000/svg">
<path fill-rule="evenodd" clip-rule="evenodd" d="M48.2448 40.671C72.4104 50.6163 75.7912 76.6167 67.1946 99.6034C66.8016 100.596 66.4621 101.609 66.1778 102.638V102.638C64.4327 109.039 64.527 115.795 66.45 122.138C68.3729 128.48 72.0471 134.154 77.0543 138.513V138.513C79.9703 141.025 83.2793 143.047 86.851 144.499C91.1495 146.277 95.7595 147.193 100.418 147.196C105.076 147.198 109.691 146.287 113.999 144.515C118.307 142.742 122.224 140.143 125.526 136.865C128.828 133.587 131.45 129.695 133.243 125.411C140.751 107.403 132.373 86.2529 114.026 79.3211C88.8855 69.7695 65.7769 62.7938 73.2312 27.4918C73.4445 26.369 73.5711 25.2319 73.6099 24.0902C73.6533 20.4381 72.6006 16.8585 70.5865 13.8102C68.5724 10.7618 65.6887 8.38352 62.3049 6.98004C61.463 6.65207 60.6002 6.37966 59.7221 6.16465C55.4666 5.08982 50.9614 5.57775 47.0313 7.53911C43.1011 9.50046 40.009 12.804 38.3211 16.845C37.3979 19.0612 36.9223 21.436 36.9216 23.8335C36.9208 26.2309 37.3948 28.604 38.3165 30.817C39.2383 33.03 40.5896 35.0394 42.2932 36.7303C43.9968 38.4211 46.0192 39.7602 48.2448 40.671Z" fill="#ED6C1E"/>
<circle cx="118" cy="139" r="50" fill="white"/>
<path d="M128.701 147.192V153H109.213V147.192H116.029V132.648C115.741 133.032 115.293 133.432 114.685 133.848C114.077 134.232 113.389 134.6 112.621 134.952C111.853 135.304 111.085 135.592 110.317 135.816C109.549 136.04 108.861 136.152 108.253 136.152V130.152C108.829 130.152 109.517 129.976 110.317 129.624C111.149 129.24 111.965 128.792 112.765 128.28C113.597 127.768 114.301 127.272 114.877 126.792C115.485 126.28 115.869 125.88 116.029 125.592H122.605V147.192H128.701Z" fill="#2D3E50"/>
</svg>
