<svg width="100" height="100" viewBox="0 0 100 100" fill="none" xmlns="http://www.w3.org/2000/svg">
<circle cx="50" cy="50" r="50" fill="white"/>
<path d="M55.4052 48.672C56.7492 48.896 57.9172 49.408 58.9092 50.208C59.9012 50.976 60.6692 51.968 61.2132 53.184C61.7892 54.4 62.0772 55.744 62.0772 57.216C62.0772 59.2 61.5652 60.928 60.5412 62.4C59.5172 63.872 58.0612 65.008 56.1732 65.808C54.3172 66.64 52.1252 67.056 49.5972 67.056C47.1652 67.056 45.0052 66.656 43.1172 65.856C41.2612 65.088 39.7092 63.952 38.4612 62.448L42.1092 57.888C42.9412 58.912 43.9332 59.712 45.0852 60.288C46.2692 60.896 47.7092 61.2 49.4052 61.2C51.3572 61.2 52.8452 60.8 53.8692 60C54.8932 59.232 55.4052 58.064 55.4052 56.496C55.4052 54.832 54.8132 53.552 53.6292 52.656C52.4452 51.76 50.6532 51.312 48.2532 51.312H46.9092V46.512H48.3972C50.3492 46.512 51.8692 46.064 52.9572 45.168C54.0772 44.272 54.6372 43.152 54.6372 41.808C54.6372 40.944 54.4292 40.224 54.0132 39.648C53.5972 39.072 53.0212 38.64 52.2852 38.352C51.5812 38.064 50.7492 37.92 49.7892 37.92C48.3492 37.92 47.0372 38.256 45.8532 38.928C44.6692 39.6 43.7092 40.544 42.9732 41.76L38.9412 37.248C39.6132 36.256 40.5252 35.408 41.6772 34.704C42.8612 33.968 44.2052 33.392 45.7092 32.976C47.2452 32.56 48.8452 32.352 50.5092 32.352C52.6852 32.352 54.5892 32.704 56.2212 33.408C57.8852 34.112 59.1812 35.104 60.1092 36.384C61.0372 37.664 61.5012 39.152 61.5012 40.848C61.5012 42.096 61.2452 43.28 60.7332 44.4C60.2212 45.52 59.5012 46.464 58.5732 47.232C57.6772 47.968 56.6212 48.448 55.4052 48.672Z" fill="#2D3E50"/>
</svg>
