<svg width="100" height="100" viewBox="0 0 100 100" fill="none" xmlns="http://www.w3.org/2000/svg">
<circle cx="50" cy="50" r="50" fill="white"/>
<path d="M60.7006 58.192V64H41.2126V58.192H48.0286V43.648C47.7406 44.032 47.2926 44.432 46.6846 44.848C46.0766 45.232 45.3886 45.6 44.6206 45.952C43.8526 46.304 43.0846 46.592 42.3166 46.816C41.5486 47.04 40.8606 47.152 40.2526 47.152V41.152C40.8286 41.152 41.5166 40.976 42.3166 40.624C43.1486 40.24 43.9646 39.792 44.7646 39.28C45.5966 38.768 46.3006 38.272 46.8766 37.792C47.4846 37.28 47.8686 36.88 48.0286 36.592H54.6046V58.192H60.7006Z" fill="#2D3E50"/>
</svg>
