<svg width="100" height="100" viewBox="0 0 100 100" fill="none" xmlns="http://www.w3.org/2000/svg">
<circle cx="50" cy="50" r="50" fill="white"/>
<path d="M38.2771 64C38.2771 62.56 38.3891 61.264 38.6131 60.112C38.8371 58.96 39.2211 57.888 39.7651 56.896C40.3411 55.904 41.1091 54.976 42.0691 54.112C43.0611 53.216 44.3091 52.352 45.8131 51.52C47.1251 50.816 48.2771 50.208 49.2691 49.696C50.2611 49.152 51.0931 48.656 51.7651 48.208C52.4691 47.76 52.9971 47.312 53.3491 46.864C53.7011 46.384 53.8771 45.84 53.8771 45.232C53.8771 44.592 53.7011 44.016 53.3491 43.504C52.9971 42.96 52.5011 42.528 51.8611 42.208C51.2211 41.888 50.4211 41.728 49.4611 41.728C48.6931 41.728 47.9731 41.824 47.3011 42.016C46.6611 42.208 46.0531 42.48 45.4771 42.832C44.9331 43.184 44.4211 43.584 43.9411 44.032C43.4611 44.448 43.0291 44.896 42.6451 45.376L38.5651 40.672C39.0131 40.224 39.6051 39.744 40.3411 39.232C41.1091 38.688 42.0051 38.192 43.0291 37.744C44.0851 37.264 45.2371 36.88 46.4851 36.592C47.7651 36.272 49.1251 36.112 50.5651 36.112C52.7411 36.112 54.5971 36.464 56.1331 37.168C57.6691 37.84 58.8371 38.784 59.6371 40C60.4691 41.216 60.8851 42.64 60.8851 44.272C60.8851 45.392 60.6771 46.384 60.2611 47.248C59.8451 48.112 59.3171 48.88 58.6771 49.552C58.0371 50.192 57.3331 50.768 56.5651 51.28C55.8291 51.792 55.1091 52.24 54.4051 52.624C53.4131 53.136 52.5171 53.616 51.7171 54.064C50.9171 54.48 50.2131 54.912 49.6051 55.36C48.9971 55.776 48.4531 56.208 47.9731 56.656C47.5251 57.104 47.1251 57.616 46.7731 58.192H61.4131V64H38.2771Z" fill="#2D3E50"/>
</svg>
