<svg width="32" height="32" viewBox="0 0 32 32" fill="none" xmlns="http://www.w3.org/2000/svg">
<circle cx="16" cy="16" r="50" fill="white"/>
<path d="M16 26.6665C18.829 26.6665 21.5421 25.5427 23.5425 23.5423C25.5429 21.5419 26.6667 18.8288 26.6667 15.9998C26.6667 13.1709 25.5429 10.4578 23.5425 8.45737C21.5421 6.45698 18.829 5.33317 16 5.33317C13.171 5.33317 10.4579 6.45698 8.45752 8.45737C6.45713 10.4578 5.33332 13.1709 5.33332 15.9998C5.33332 18.8288 6.45713 21.5419 8.45752 23.5423C10.4579 25.5427 13.171 26.6665 16 26.6665V26.6665ZM16 29.3332C8.63599 29.3332 2.66666 23.3638 2.66666 15.9998C2.66666 8.63584 8.63599 2.6665 16 2.6665C23.364 2.6665 29.3333 8.63584 29.3333 15.9998C29.3333 23.3638 23.364 29.3332 16 29.3332ZM16 21.3332C17.4145 21.3332 18.771 20.7713 19.7712 19.7711C20.7714 18.7709 21.3333 17.4143 21.3333 15.9998C21.3333 14.5853 20.7714 13.2288 19.7712 12.2286C18.771 11.2284 17.4145 10.6665 16 10.6665C14.5855 10.6665 13.2289 11.2284 12.2288 12.2286C11.2286 13.2288 10.6667 14.5853 10.6667 15.9998C10.6667 17.4143 11.2286 18.7709 12.2288 19.7711C13.2289 20.7713 14.5855 21.3332 16 21.3332V21.3332ZM16 23.9998C13.8783 23.9998 11.8434 23.157 10.3431 21.6567C8.84284 20.1564 7.99999 18.1216 7.99999 15.9998C7.99999 13.8781 8.84284 11.8433 10.3431 10.343C11.8434 8.84269 13.8783 7.99984 16 7.99984C18.1217 7.99984 20.1566 8.84269 21.6568 10.343C23.1571 11.8433 24 13.8781 24 15.9998C24 18.1216 23.1571 20.1564 21.6568 21.6567C20.1566 23.157 18.1217 23.9998 16 23.9998ZM16 18.6665C15.2927 18.6665 14.6145 18.3856 14.1144 17.8855C13.6143 17.3854 13.3333 16.7071 13.3333 15.9998C13.3333 15.2926 13.6143 14.6143 14.1144 14.1142C14.6145 13.6141 15.2927 13.3332 16 13.3332C16.7072 13.3332 17.3855 13.6141 17.8856 14.1142C18.3857 14.6143 18.6667 15.2926 18.6667 15.9998C18.6667 16.7071 18.3857 17.3854 17.8856 17.8855C17.3855 18.3856 16.7072 18.6665 16 18.6665Z" fill="#2D3E50"/>
</svg>
