<svg width="660" height="662" viewBox="0 0 660 662" fill="none" xmlns="http://www.w3.org/2000/svg">
<path fill-rule="evenodd" clip-rule="evenodd" d="M-145.165 69.8126C44.2553 69.8126 139.403 235.499 146.008 414.083C146.149 421.857 146.703 429.618 147.671 437.333V437.333C153.851 485.263 173.328 530.49 203.885 567.864C234.443 605.238 274.852 633.256 320.511 648.729V648.729C347.03 657.568 374.808 662.013 402.753 661.889C436.471 661.947 469.87 655.343 501.042 642.454C532.214 629.566 560.549 610.646 584.427 586.774C608.306 562.902 627.261 534.547 640.209 503.328C653.158 472.109 659.846 438.638 659.892 404.827C659.892 262.785 544.84 143.598 402.753 147.765C207.909 153.117 33.8437 170.181 -14.758 -88.1535C-16.463 -96.3037 -18.7883 -104.311 -21.7135 -112.105C-31.6102 -136.814 -48.6388 -157.997 -70.6173 -172.94C-92.5958 -187.883 -118.523 -195.906 -145.077 -195.979C-151.625 -195.854 -158.157 -195.298 -164.632 -194.312C-196.101 -189.757 -224.882 -173.989 -245.705 -149.894C-266.528 -125.799 -278 -94.9891 -278.021 -63.1052C-278.015 -45.6259 -274.573 -28.3194 -267.89 -12.1756C-261.208 3.96814 -251.417 18.6321 -239.077 30.9776C-226.737 43.323 -212.091 53.1076 -195.976 59.7714C-179.862 66.4351 -162.595 69.8472 -145.165 69.8126Z" fill="#ED6C1E"/>
</svg>
